<svg xmlns="http://www.w3.org/2000/svg" viewBox="0 0 1440 720" preserveAspectRatio="xMidYMid slice">
  <defs>
    <linearGradient id="g1" x1="0" x2="1" y1="0" y2="1">
      <stop offset="0%" stop-color="#0f1020"/>
      <stop offset="100%" stop-color="#1a1033"/>
    </linearGradient>
    <linearGradient id="glow" x1="0" x2="0" y1="0" y2="1">
      <stop offset="0%" stop-color="#8B5CF6" stop-opacity=".55"/>
      <stop offset="100%" stop-color="#7C3AED" stop-opacity=".25"/>
    </linearGradient>
    <filter id="blur"><feGaussianBlur stdDeviation="40"/></filter>
  </defs>
  <rect fill="url(#g1)" width="100%" height="100%"/>
  <g filter="url(#blur)">
    <ellipse cx="240" cy="140" rx="360" ry="160" fill="url(#glow)"/>
    <ellipse cx="1200" cy="220" rx="420" ry="220" fill="url(#glow)"/>
    <ellipse cx="720" cy="100" rx="500" ry="180" fill="url(#glow)"/>
  </g>
  <g opacity=".6" fill="#1b1431">
    <path d="M0 540 L 120 480 240 520 360 430 480 520 600 470 720 520 840 440 960 520 1080 460 1200 520 1320 470 1440 520 1440 720 0 720 Z"/>
  </g>
  <g opacity=".8" fill="#221a3a">
    <path d="M0 560 L 140 510 260 540 380 480 500 550 620 500 740 540 860 500 980 540 1100 500 1220 540 1340 510 1440 540 1440 720 0 720 Z"/>
  </g>
</svg>
